<?xml version="1.0" encoding="UTF-8"?>
<svg version="1.1" xmlns="http://www.w3.org/2000/svg" width="70" height="58">
<path d="M0 0 C4.04849147 1.01212287 6.68927901 2.43380811 10.25 4.5625 C11.32765625 5.20316406 12.4053125 5.84382813 13.515625 6.50390625 C14.33546875 6.99761719 15.1553125 7.49132813 16 8 C13.61076232 10.61715838 11.02899249 12.36199113 8 14.1875 C7.13375 14.71730469 6.2675 15.24710938 5.375 15.79296875 C3 17 3 17 0 17 C0 11.39 0 5.78 0 0 Z " fill="#FEFEFE" transform="translate(17,31)"/>
<path d="M0 0 C3.81275879 1.52510352 6.86017055 3.00757127 10.3125 5.125 C11.19550781 5.66382813 12.07851563 6.20265625 12.98828125 6.7578125 C13.65214844 7.16773438 14.31601562 7.57765625 15 8 C13.64625203 12.06124391 11.73741172 12.60315649 8.0625 14.6875 C6.44021484 15.62142578 6.44021484 15.62142578 4.78515625 16.57421875 C2 18 2 18 0 18 C0 12.06 0 6.12 0 0 Z " fill="#FEFEFE" transform="translate(17,10)"/>
<path d="M0 0 C0 5.94 0 11.88 0 18 C-4.95 15.36 -9.9 12.72 -15 10 C-13.64625203 5.93875609 -11.73741172 5.39684351 -8.0625 3.3125 C-6.98097656 2.68988281 -5.89945313 2.06726563 -4.78515625 1.42578125 C-2 0 -2 0 0 0 Z " fill="#FFFFFF" transform="translate(16,10)"/>
<path d="M0 0 C0 5.61 0 11.22 0 17 C-3.7895406 16.05261485 -6.37009279 14.82863856 -9.75 12.9375 C-10.73484375 12.38964844 -11.7196875 11.84179688 -12.734375 11.27734375 C-13.48203125 10.85582031 -14.2296875 10.43429688 -15 10 C-15 9.34 -15 8.68 -15 8 C-12.89980986 6.52690889 -10.82232271 5.18690365 -8.625 3.875 C-8.02171875 3.50246094 -7.4184375 3.12992188 -6.796875 2.74609375 C-2.27034684 0 -2.27034684 0 0 0 Z " fill="#FFFFFF" transform="translate(34,41)"/>
<path d="M0 0 C0 5.61 0 11.22 0 17 C-3.57128086 15.57148766 -6.89752272 14.10525515 -10.3125 12.375 C-11.19550781 11.92898437 -12.07851562 11.48296875 -12.98828125 11.0234375 C-13.65214844 10.68570313 -14.31601563 10.34796875 -15 10 C-13.64625203 5.93875609 -11.73741172 5.39684351 -8.0625 3.3125 C-6.98097656 2.68988281 -5.89945313 2.06726562 -4.78515625 1.42578125 C-2 0 -2 0 0 0 Z " fill="#FFFFFF" transform="translate(16,31)"/>
<path d="M0 0 C0.33 5.94 0.66 11.88 1 18 C-2.84018203 16.46392719 -6.21848332 14.86686467 -9.8125 12.875 C-11.27623047 12.06675781 -11.27623047 12.06675781 -12.76953125 11.2421875 C-13.50558594 10.83226562 -14.24164063 10.42234375 -15 10 C-15 9.34 -15 8.68 -15 8 C-12.89980986 6.52690889 -10.82232271 5.18690365 -8.625 3.875 C-8.02171875 3.50246094 -7.4184375 3.12992188 -6.796875 2.74609375 C-2.27034684 0 -2.27034684 0 0 0 Z " fill="#FFFFFF" transform="translate(52,10)"/>
<path d="M0 0 C0 5.28 0 10.56 0 16 C-4.75797209 15.04840558 -6.88132298 14.04249682 -10.8125 11.4375 C-11.78832031 10.79683594 -12.76414062 10.15617188 -13.76953125 9.49609375 C-14.50558594 9.00238281 -15.24164062 8.50867187 -16 8 C-13.34868772 5.17958352 -10.81451372 3.07885624 -7.4375 1.1875 C-6.67308594 0.74792969 -5.90867187 0.30835937 -5.12109375 -0.14453125 C-3 -1 -3 -1 0 0 Z " fill="#FFFFFF" transform="translate(35,1)"/>
<path d="M0 0 C3.81275879 1.52510352 6.86017055 3.00757127 10.3125 5.125 C11.19550781 5.66382813 12.07851562 6.20265625 12.98828125 6.7578125 C13.65214844 7.16773438 14.31601563 7.57765625 15 8 C12.34868772 10.82041648 9.81451372 12.92114376 6.4375 14.8125 C5.67308594 15.25207031 4.90867187 15.69164062 4.12109375 16.14453125 C2 17 2 17 -1 16 C-0.67 10.72 -0.34 5.44 0 0 Z " fill="#FFFFFF" transform="translate(54,31)"/>
<path d="M0 0 C3.74820696 1.49928279 6.87895114 2.96530438 10.3125 5 C11.19550781 5.515625 12.07851562 6.03125 12.98828125 6.5625 C13.65214844 7.036875 14.31601563 7.51125 15 8 C15 8.66 15 9.32 15 10 C12.87767021 11.17176518 10.75242209 12.33754785 8.625 13.5 C8.02171875 13.83386719 7.4184375 14.16773438 6.796875 14.51171875 C2.2265625 17 2.2265625 17 0 17 C0 11.39 0 5.78 0 0 Z " fill="#FFFFFF" transform="translate(54,10)"/>
<path d="M0 0 C3.84018203 1.53607281 7.21848332 3.13313533 10.8125 5.125 C12.27623047 5.93324219 12.27623047 5.93324219 13.76953125 6.7578125 C14.50558594 7.16773438 15.24164063 7.57765625 16 8 C16 8.66 16 9.32 16 10 C13.87767021 11.17176518 11.75242209 12.33754785 9.625 13.5 C9.02171875 13.83386719 8.4184375 14.16773438 7.796875 14.51171875 C3.2265625 17 3.2265625 17 1 17 C0.67 11.39 0.34 5.78 0 0 Z " fill="#FFFFFF" transform="translate(35,41)"/>
<path d="M0 0 C0 5.61 0 11.22 0 17 C-3.74820696 15.50071721 -6.87895114 14.03469562 -10.3125 12 C-11.19550781 11.484375 -12.07851563 10.96875 -12.98828125 10.4375 C-13.65214844 9.963125 -14.31601562 9.48875 -15 9 C-15 8.34 -15 7.68 -15 7 C-12.87767021 5.82823482 -10.75242209 4.66245215 -8.625 3.5 C-7.72007813 2.99919922 -7.72007813 2.99919922 -6.796875 2.48828125 C-2.2265625 0 -2.2265625 0 0 0 Z " fill="#FAFAFA" transform="translate(70,21)"/>
<path d="M0 0 C0 5.61 0 11.22 0 17 C-3.81275879 15.47489648 -6.86017055 13.99242873 -10.3125 11.875 C-11.19550781 11.33617187 -12.07851563 10.79734375 -12.98828125 10.2421875 C-13.65214844 9.83226562 -14.31601562 9.42234375 -15 9 C-12.59888822 6.36115438 -9.99444972 4.63586471 -6.9375 2.8125 C-5.62072266 2.01779297 -5.62072266 2.01779297 -4.27734375 1.20703125 C-2 0 -2 0 0 0 Z " fill="#FFFFFF" transform="translate(52,31)"/>
<path d="M0 0 C3.81275879 1.52510352 6.86017055 3.00757127 10.3125 5.125 C11.19550781 5.66382813 12.07851563 6.20265625 12.98828125 6.7578125 C13.65214844 7.16773438 14.31601562 7.57765625 15 8 C12.59888822 10.63884562 9.99444972 12.36413529 6.9375 14.1875 C6.05964844 14.71730469 5.18179688 15.24710938 4.27734375 15.79296875 C2 17 2 17 0 17 C0 11.39 0 5.78 0 0 Z " fill="#FFFFFF" transform="translate(36,0)"/>
<path d="M0 0 C3.52892447 1.41156979 6.54862203 2.77384533 9.8125 4.625 C10.99779297 5.29402344 10.99779297 5.29402344 12.20703125 5.9765625 C12.79871094 6.31429688 13.39039063 6.65203125 14 7 C12.641129 11.07661299 10.69457052 11.60930409 7 13.6875 C5.906875 14.31011719 4.81375 14.93273438 3.6875 15.57421875 C1 17 1 17 0 17 C0 11.39 0 5.78 0 0 Z " fill="#FEFEFE" transform="translate(0,21)"/>
</svg>
